<svg width="49" height="42" viewBox="0 0 49 42" fill="none" xmlns="http://www.w3.org/2000/svg"><path d="M36.43 15.707H17.44a2.29 2.29 0 01-1.67-.723l-2.449-2.61a2.29 2.29 0 00-1.672-.723H3.676a2.29 2.29 0 00-2.29 2.29v25.542a2.293 2.293 0 002.292 2.293h32.748a2.293 2.293 0 002.293-2.293V17.998a2.29 2.29 0 00-2.288-2.29z" fill="url(#paint0_linear)"/><path d="M42.158 28.112l-28.771-8.078a.885.885 0 01-.521-.394.792.792 0 01-.088-.622l4.818-17.157a.793.793 0 01.398-.486.886.886 0 01.65-.066l28.771 8.078c.22.062.407.204.522.394.114.19.145.415.087.622l-4.817 17.158a.793.793 0 01-.399.486.885.885 0 01-.65.065z" fill="#fff"/><path opacity=".5" d="M13.39 20.02l28.771 8.078a.86.86 0 001.061-.596L18.945.232a.86.86 0 00-1.06.596l-5.09 18.131a.86.86 0 00.595 1.06z" fill="url(#paint1_linear)"/><path d="M26.585 16.33l4.242 1.192-1.191 4.241-4.242-1.19 1.19-4.242zm5.581 1.568l4.242 1.19-1.19 4.242-4.243-1.19 1.191-4.242zm5.434 1.525l4.242 1.191-1.191 4.242-4.242-1.19 1.191-4.243z" fill="#E3EFF9"/><path d="M30.759 8.226l.04.017c-.002-.002-.011-.01-.04-.017zm10.49 2.945c.003 0 .006.002.009 0-.006-.001-.01-.002-.01 0zm-8.942-2.283c-.005-.002-.01 0-.013-.002l.013.002z" fill="#E6F1FA"/><path d="M30.201 8.282l1.271.384.838.227c.133.012.353.1.51.124l.053.028a.665.665 0 01.167.043l-.005.003c.08.013.167.043.206.048l-.003-.001.093.026h-.02c.139.028.277.067.399.105l-.006-.021c.258.091.364.086.593.172l-.001.003c.31.043.465.162.784.209-.037-.005.016.012.01.016.144.037.295.075.306.047.105.03.082.033.092.05.004-.015.095.007.176.03l-.038-.005.236.06-.038-.038c.12.042.022.04.142.067l.006-.021c.168.05.26.112.417.175.682.201 1.432.353 2.055.57l.023.025c.007.027.185.013.202.043l.075.01c.02.01.062.027.023.022.068.02.073.016.121.024l.068.035c.267.086.504.122.787.209.334.124.982.277 1.357.367.532.11 1.11.374 1.651.483.018.009.065.014.064.01l.486.137s2.361.672.619-.025l.014-.002a3.362 3.362 0 00-.623-.163c-.02-.038-.218-.065-.277-.091h.006c-.169-.022-.33-.112-.492-.137.006 0 .012-.008.048.002-.116-.028-.273-.065-.277-.085-.275-.072-.653-.187-.835-.208l.014-.002c-.104-.01-.131-.032-.245-.055-.005-.003-.014-.007-.011-.009-.113-.012-.318-.085-.408-.103l-.002-.014-.216-.06.08.022c-.037.025-.155-.067-.32-.09-.146-.045-.316-.014-.465-.072-.077-.002.072-.007-.041-.025.001-.02.053.003.03-.019-.11-.021-.17-.067-.305-.091l-.001-.014c-.178-.023-.32-.11-.44-.118-.179-.038-.107-.073-.298-.099l-.067-.038c-.078-.026-.06.006-.147-.028.008-.01-.106-.04-.055-.035-.193-.073-.408-.087-.66-.191-.06.006-.19-.044-.238-.04-.005-.01-.263-.075-.109-.055.013.001.037.008.035.011l.022-.007c-.142-.067-.274-.061-.42-.108.042.015.1.032.06.03l-.137-.04.032-.003-.202-.064.025.022c-.097-.035-.126-.068-.244-.08-.053-.003.089.044-.017.02-.13-.046-.326-.116-.497-.168.014.023-.034.006-.082-.004l-.002-.014c-.185-.032-.058-.047-.24-.083l.02-.004-.055.016c-.17-.019-.079-.052-.269-.066.072.018.028.039-.06.008l.025-.006c-.05-.01-.068-.01-.1-.022.032 0 .02-.014-.048-.033l.052-.005-.142-.015c-.1-.044-.271-.072-.307-.102 0 0-.221-.071-.277-.066.048 0-.072-.04-.034-.044a1.054 1.054 0 01-.3-.073l.013.002c-.247-.089-.438-.1-.66-.183.006.02-.11-.023-.086.004-.24-.047-.417-.161-.52-.122-.109-.027-.122-.05-.175-.069l.026.007c-.2-.05-.26-.066-.408-.11-.074-.015-.097.012-.228-.035.047.002-.008-.012-.058-.026.033.007.043.006-.02-.021-.01.001-.024-.001-.038-.003 0-.002-.003-.003 0-.004-.084-.02-.07-.012-.034 0-.002.002.001.005.011.011-.082-.038-.24-.065-.247-.089-.254-.065-.436-.095-.645-.146-.02-.017.03-.01.091 0l-.147-.04c.006-.015.087.014.133.025-.168-.073-.367-.078-.568-.158h-.046l-.013-.006c-.001.005-.049.002-.08-.003-.025-.021.01-.029-.091-.057-.078-.035-.23-.059-.338-.081.057.017.033.019.01.018-.05-.014-.078-.035-.117-.04v-.02c.013.023-.139-.02-.158-.02-.025-.02.082.012.095.008l-.306-.086c-.112-.018.013.023-.041.022-.096-.024-.195-.04-.302-.08l.032.025a1.957 1.957 0 01-.41-.12c-1.38-.256-.33.087-.33.087.518.185.804.218 1.437.384l.001.005zm.01 1.902l.04.017c-.001-.002-.011-.009-.04-.017zm10.49 2.941c.004.001.008.002.01.001h-.01zm-8.942-2.277c-.005-.002-.01 0-.013-.002l.013.002z" fill="#E6F1FA"/><path d="M29.651 10.236l1.271.384.838.228c.132.012.353.099.51.123l.053.03a.665.665 0 01.167.042l-.004-.001c.08.013.167.043.206.048l-.004.003.094.024h-.02c.138.028.277.067.398.104l-.005-.02c.257.091.364.086.592.172l-.003-.001c.31.042.465.161.784.208-.038-.004.016.012.01.016.144.037.295.076.306.048.105.03.082.033.091.049.004-.013.096.007.177.03l-.038-.005.236.06-.038-.037c.12.041.022.039.142.067l.005-.018c.168.05.26.112.417.175.682.201 1.431.353 2.055.569l.023.026c.006.027.185.013.202.043l.075.01c.02.01.062.027.023.021.068.021.073.017.121.025l.068.034c.267.087.504.123.787.21.334.124.982.277 1.357.367.532.11 1.11.374 1.651.483.017.009.065.014.064.01l.485.14s2.361.673.618-.024l.015-.002a3.356 3.356 0 00-.623-.163c-.02-.039-.218-.065-.277-.092l.005.002c-.168-.022-.33-.112-.492-.136.006 0 .012-.008.048.002-.116-.03-.273-.065-.277-.086-.275-.071-.652-.187-.835-.207l.014-.002c-.104-.01-.13-.033-.245-.055-.005-.004-.013-.008-.01-.01-.114-.012-.319-.085-.409-.102l-.002-.014-.217-.057.081.022c-.038.025-.156-.067-.32-.09-.147-.045-.317-.015-.466-.072-.077-.002.072-.007-.041-.025.001-.02.053.003.03-.019-.11-.021-.17-.067-.304-.091l-.002-.014c-.178-.023-.32-.11-.44-.118-.179-.038-.107-.073-.297-.099l-.068-.038c-.078-.026-.06.006-.147-.028.008-.01-.106-.04-.054-.035-.193-.073-.409-.087-.661-.191-.06.006-.19-.044-.238-.04-.005-.01-.262-.075-.109-.055.013.001.037.008.036.011l.021-.007c-.142-.067-.274-.061-.42-.108.042.015.1.032.06.03l-.137-.039.032-.002-.202-.065.025.023c-.097-.035-.127-.069-.244-.08-.053-.003.089.044-.017.02-.13-.046-.327-.117-.497-.168.013.023-.034.006-.082-.004l-.002-.014c-.185-.033-.059-.048-.24-.083l.02-.004-.055.015c-.17-.018-.079-.05-.27-.065.073.018.029.039-.06.008l.025-.007c-.05-.01-.067-.009-.098-.021.03 0 .02-.014-.05-.034l.053-.005-.142-.014c-.1-.044-.271-.072-.308-.102 0 0-.22-.072-.276-.066.048 0-.072-.04-.034-.044a1.055 1.055 0 01-.3-.073l.012.003c-.247-.088-.438-.1-.66-.183.007.021-.11-.023-.086.005-.24-.048-.417-.162-.52-.123-.108-.026-.121-.05-.174-.068l.026.003a8.38 8.38 0 01-.408-.11c-.073-.015-.096.012-.227-.035.046.002-.008-.012-.059-.026.033.007.043.006-.02-.021-.01.001-.024-.001-.037-.003 0 0-.003-.003-.001-.004-.084-.02-.07-.012-.033 0-.003.002 0 .005.01.011-.082-.039-.24-.065-.247-.089-.253-.065-.435-.095-.644-.146-.02-.017.03-.01.09 0l-.148-.037c.006-.014.087.015.133.025-.168-.072-.367-.077-.568-.157l-.046-.001-.012-.006c-.002.006-.05.002-.08-.003-.026-.02.01-.028-.092-.056-.077-.036-.23-.06-.338-.082.057.018.033.02.01.018-.05-.014-.077-.035-.117-.04v-.02c.013.023-.138-.019-.158-.019-.025-.02.082.012.095.008l-.306-.084c-.112-.018.013.023-.041.021-.097-.023-.195-.04-.303-.079l.032.025a1.958 1.958 0 01-.409-.121c-1.38-.256-.331.087-.331.087.52.185.805.219 1.438.385l.008-.008zm-.522 3.797l.04.017c0-.004-.011-.01-.04-.017zm10.49 2.941c.004.001.008.002.01 0h-.01zm-8.942-2.277c-.005-.002-.01-.001-.013-.002l.013.002z" fill="#E6F1FA"/><path d="M28.57 14.087l1.271.384.837.227c.133.012.353.1.51.124l.054.029a.669.669 0 01.166.043l-.004.002c.08.013.166.043.206.048l-.005.003.094.025h-.02c.139.027.277.066.399.104l-.006-.021c.258.092.364.087.593.172l-.001.004c.31.042.465.161.784.208-.037-.005.016.012.01.016.144.037.295.076.306.048.105.03.083.033.092.049.004-.015.095.007.176.03l-.038-.005.236.06-.038-.038c.12.042.022.04.142.068l.006-.022c.168.051.26.112.417.175.682.201 1.432.354 2.055.57l.024.026c.006.026.184.012.201.043l.075.009c.02.01.063.027.023.022.069.02.073.017.122.024l.068.035c.267.087.503.122.786.209.334.125.982.278 1.357.367.532.111 1.11.374 1.652.483.017.01.064.015.063.01l.485.14s2.361.673.619-.024l.014-.002a3.364 3.364 0 00-.623-.163c-.02-.038-.218-.065-.277-.091l.005.001c-.168-.022-.33-.112-.492-.136.006 0 .012-.008.048.002-.116-.029-.273-.065-.277-.086-.275-.071-.652-.187-.835-.207l.014-.002c-.104-.01-.13-.033-.245-.055-.005-.003-.013-.008-.01-.009-.114-.012-.319-.085-.409-.103l-.002-.014-.216-.06.08.024c-.037.024-.155-.067-.32-.09-.146-.045-.316-.015-.465-.072-.077-.003.072-.007-.041-.026.001-.019.053.004.03-.018-.11-.022-.17-.067-.304-.092l-.002-.014c-.178-.023-.32-.109-.44-.117-.179-.039-.107-.073-.298-.1l-.067-.038c-.078-.025-.06.007-.147-.027.008-.01-.106-.04-.055-.035-.193-.074-.408-.088-.66-.192-.06.007-.19-.043-.238-.04-.005-.01-.263-.075-.109-.055.013.002.037.008.035.012l.022-.008c-.142-.067-.274-.061-.42-.108.042.016.1.032.06.03l-.138-.038.032-.003-.201-.064.025.023c-.097-.035-.127-.069-.244-.08-.053-.004.089.044-.017.02-.131-.047-.327-.117-.497-.169.013.023-.035.006-.082-.003l-.002-.015c-.185-.032-.059-.047-.241-.083l.02-.004-.055.016c-.17-.018-.078-.051-.269-.066.073.019.029.04-.06.008l.025-.006c-.05-.01-.067-.01-.099-.022.031 0 .02-.014-.049-.033l.052-.005-.141-.014c-.1-.044-.271-.073-.308-.102 0 0-.22-.072-.276-.066.048 0-.073-.04-.035-.045a1.052 1.052 0 01-.3-.073l.013.004c-.247-.089-.438-.1-.66-.183.006.02-.11-.023-.086.005-.24-.048-.417-.162-.52-.123-.109-.027-.122-.05-.175-.069l.027.004c-.2-.05-.26-.067-.408-.11-.074-.016-.097.011-.227-.035.046.001-.009-.012-.06-.027.034.008.044.007-.019-.02l-.038-.003c0-.002-.003-.003 0-.005-.084-.02-.07-.012-.034 0-.002.002.001.005.011.012-.082-.039-.24-.066-.247-.09-.253-.064-.436-.094-.645-.145-.02-.018.03-.011.092 0l-.15-.038c.007-.014.088.015.134.026-.169-.072-.367-.078-.568-.157l-.046-.002-.012-.005c-.002.005-.05.002-.081-.003-.025-.021.01-.029-.091-.057-.077-.035-.23-.059-.338-.081.057.018.033.019.01.018-.05-.014-.078-.035-.117-.04v-.02c.013.023-.138-.02-.158-.02-.025-.02.082.012.095.008l-.307-.084c-.111-.018.013.023-.04.022-.097-.024-.196-.04-.303-.08l.032.025a1.96 1.96 0 01-.409-.12c-1.38-.256-.331.087-.331.087.519.185.805.218 1.438.384l.005-.01zm.055-2.354l.02.011c0-.003-.004-.007-.02-.011zm5.636 1.578h.006-.006zm-4.832-1.123h-.007l.007.002v-.002z" fill="#E6F1FA"/><path d="M28.3 11.847c.296.09.369.142.678.217l.452.12c.075-.005.19.053.275.057l.027.021c.03 0 .065.007.091.022v.004c.043.002.09.021.11.021l-.001.004.05.012-.01.003c.075.01.15.03.215.052v-.02c.135.058.196.04.318.096l-.002.003c.173.005.244.1.422.107-.02 0 .007.01.004.015.076.018.16.037.168.008.054.016.043.022.048.037.004-.012.054-.004.095.008h-.02l.128.03-.018-.032c.065.025.01.035.072.047l.006-.022c.09.03.134.077.22.12.364.112.774.169 1.105.303l.01.022c0 .025.103-.01.111.018h.043c.01.007.033.019.01.018.036.012.037.007.067.01l.036.025c.14.051.275.058.424.107.176.08.527.15.731.192.29.043.589.228.886.268.008.006.037.007.035.002l.26.077s1.267.365.358-.098l.008-.003a.979.979 0 00-.336-.083c-.01-.035-.116-.036-.148-.055h.005c-.097-.002-.175-.07-.266-.073.004 0 .009-.01.029-.004-.063-.013-.148-.03-.148-.049-.145-.035-.35-.102-.452-.1l.01-.003c-.06.003-.074-.017-.134-.024-.003-.002-.006-.005-.006-.007-.063.002-.172-.045-.219-.05v-.014l-.118-.029.043.014c-.024.028-.084-.047-.173-.048-.078-.026-.181.022-.257-.014-.044.007.044-.015-.02-.02.004-.018.03-.003.02-.021-.06-.007-.088-.044-.16-.05v-.015c-.097 0-.17-.067-.236-.06-.098-.016-.052-.057-.158-.06l-.03-.028c-.043-.016-.038.013-.082-.009.007-.01-.057-.026-.027-.027-.103-.048-.223-.036-.355-.106-.037.013-.103-.019-.133-.01-.001-.01-.14-.041-.055-.04.008 0 .019.003.018.006l.012-.01c-.072-.047-.148-.026-.226-.053.023.01.053.018.033.022l-.072-.022.018-.006-.106-.038.01.019c-.052-.023-.063-.051-.13-.049-.03.004.045.032-.012.022l-.263-.103c.004.021-.022.01-.046.007l.003-.013c-.102-.01-.027-.039-.127-.051l.012-.007-.034.022c-.094.003-.039-.04-.146-.031.036.008.01.034-.036.015l.017-.009c-.027-.004-.039-.001-.056-.01.02-.002.014-.015-.026-.026l.03-.011-.078.003c-.05-.03-.145-.037-.163-.062 0 0-.118-.042-.151-.03.027-.006-.036-.03-.014-.04a.316.316 0 01-.165-.034h.007c-.13-.056-.24-.044-.355-.097 0 .02-.061-.01-.05.014-.132-.017-.22-.106-.282-.055-.059-.013-.065-.034-.092-.046h.015l-.217-.056c-.041-.006-.057.023-.125-.006.027-.004-.003-.01-.03-.018.019.003.024 0-.008-.018-.006.002-.014.002-.02.002v-.004c-.047-.01-.039-.003-.021.004-.003.001-.001.003.005.01-.043-.028-.13-.036-.13-.057-.135-.032-.238-.04-.351-.063-.01-.015.02-.014.053-.01l-.08-.02c.004-.014.047.004.075.01-.087-.05-.201-.031-.307-.084l-.026.004-.007-.004c-.001.006-.03.008-.046.007-.015-.018.01-.029-.046-.044-.04-.025-.124-.03-.184-.038.03.01.016.014.003.016-.027-.007-.04-.025-.063-.025l.005-.018c.006.02-.076-.002-.087 0-.014-.017.046.002.054-.004l-.163-.044c-.063-.004.006.021-.027.026-.055-.012-.106-.014-.163-.04l.014.02a.576.576 0 01-.22-.068c-.758-.081-.2.124-.2.124.283.119.441.116.784.201l-.022-.016z" fill="#E6F1FA"/><path d="M19.605 4.907l6.926 1.945-1.944 6.926-6.927-1.944 1.945-6.927z" fill="#CEE4D0"/><path d="M38.183 19.379H17.437a2.29 2.29 0 00-1.668.72l-2.448 2.6a2.29 2.29 0 01-1.668.72H2.29a2.29 2.29 0 00-2.28 2.498l1.184 13.771a2.293 2.293 0 002.283 2.084h33.15a2.293 2.293 0 002.283-2.084l1.552-17.81a2.29 2.29 0 00-2.279-2.5z" fill="#FDD390"/><mask id="a" maskUnits="userSpaceOnUse" x="0" y="19" width="41" height="23"><path d="M38.183 19.379H17.437a2.29 2.29 0 00-1.668.72l-2.448 2.6a2.29 2.29 0 01-1.668.72H2.29a2.29 2.29 0 00-2.28 2.498l1.184 13.771a2.293 2.293 0 002.283 2.084h33.15a2.293 2.293 0 002.283-2.084l1.552-17.81a2.29 2.29 0 00-2.279-2.5z" fill="#FDD390"/></mask><g mask="url(#a)"><mask id="b" maskUnits="userSpaceOnUse" x="-2" y="12" width="43" height="43"><path d="M40.08 40.18l-.853-27.275-40.317.583L.206 54.936l25.373-.793c8.241-.258 14.733-6.51 14.5-13.964z" fill="url(#paint2_linear)"/></mask><g mask="url(#b)" fill="#FCAE7A" fill-opacity=".5"><path d="M14.707 54.83l-1.177-1.043-.512 1.096 1.688-.053zm-1.453-3.363l-.147.174.635-.03-.282.728.958-.242-.676-.487.354-.064-.427-.621-.415.542-.602-.585-.179.8.781-.215zM6.56 52.703l.397-1.526-1.842.82 1.445.706zm-2.71-1.323l.193-.747-.915.41.722.337zM.982 35.272l.965-.03-.629-.594-.336.624zm2.991-5.937l.757-.161-.557-.364-.2.525zM9.23 26.79l.757-.183-.57-.352-.187.535zm7.034-1.385L17 25.33l-.483-.409-.252.484z"/><path d="M6.004 35.325l.73-.214-.595-.32-.135.534zM3.902 37.21l.73-.213-.581-.331-.149.544zm-.96-4.31l.755-.215-.594-.33-.161.545zm-.26-10.748l.73-.213-.595-.33-.135.543zm4.57 29.562l.046-.181.149-.534-.218-.036.194-.725-1.28.537.562.48.548.46zm-4.647-1.548l.512.11-.148-.661-.272.262-1.181-.407.546 1.21.543-.514zm9.925 3.712l-.691.234.773.357.053-.764.998-.582-1.543-.566.41 1.321zM1.294 52.135l1.507-.577-1.51-1.572.003 2.149zm2.709.063l-.278.062.525.544.426-.606.884-.186-.843-.927-.714 1.113zm8.321-3.69l-.291 1.248 1.583-.177-1.292-1.071zm-2.153-11.98l-.146.64.913-.082-.767-.558zm-.7 3.642l-.145.619.925-.071-.78-.548zm-1.96 9.23l-.426.606.767.134-.341-.74zM4.518 34.969l-.963.062.688.465.275-.527zm-.505-3.976l-.964.062.688.455.276-.517zm-1.152-1.096l-.964.062.687.454.277-.516zm2.604 18.285l-.963.062.687.455.276-.517zm1.437 6.127l1.54.482-.296-1.336-1.244.854zm-5.458.171l.581.723.663-1.577-1.244.854zm10.52-2.023l-.154-.895-.785.522.94.373zm1.567-3.542l-.24-1.157-.994.687 1.234.47zm-3.816-5.428l-.868-.926-.477 1 1.345-.074zm-.633-3.971l-.867-.926-.477 1 1.344-.074zm-6.747-6.914l-.867-.926-.477 1 1.344-.074zm5.818 20.281l.344 1.239.494-.46.838.789.387-1.018-1.075.14.4-.585-1.388-.105zm2.208-2.556l1.483.715-.044-1.427-1.44.712zm.08-14.93l-.512-.09.142.462.37-.371zm-1.433 2.967l-.51-.09.14.451.37-.36zm-.331 8.5l-.51-.057.18.47.33-.412zM3.707 26.08l-.63.158.58.3.05-.458zm13.82 20.582l-.63.19.593.266.037-.456zm.896-20.11l-.592.177.555.258.037-.435z"/><path d="M15.554 35.133l-.63.21.606.246.024-.456zM4.757 47.454l-.602.23.617.225-.015-.455zm-.883 5.067l.557 1.57.312-.179.511.09-.176-.365.694-.55-1.898-.566zm5.986-2.39l-.138.852.926-.452-.788-.4zm-7.914.883l1.023.212-.28-.86-.743.648zm19.746-1.623l-.893-.12.462.557.43-.437zm1.603 1.697l-.893-.11.45.558.443-.448zm-.081 1.463l-.893-.11.45.558.443-.448zM12.36 47.576l.05-.425-.656.17.606.255zm1.602.86l.882-.239-.8-.398-.082.638zm-6.205-.144l.88-.292-.85-.376-.03.668zm8.676.332l.883-.218-.776-.42-.107.638zm-5.94 1.012l1.155-.418-1.12-.473-.035.89zm3.256-10.868l1.156-.407-1.12-.473-.036.88zm-3.75 3.631l1.156-.417-1.12-.462-.036.88zm-4.15 7.043l1.333-.444-1.263-.564-.07 1.008zm.21-19.305l1.36-.392-1.239-.597-.122.989zm9.884 4.052l1.34-.253-1.114-.675-.226.928zm-5.19-4.675l1.256-.463-1.223-.512-.033.975zm3.24 4.874l-.465-1.066-.693 1.007 1.158.059zm3.184 4.294l-.466-1.076-.692 1.017 1.158.059zm-4.585 2.101l-.465-1.065-.68 1.006 1.145.06zm1.86-9.607l-.479-1.075-.68 1.016 1.159.06zm8.097 4.162l-.479-1.076-.68 1.017 1.159.059zM12.458 36.5l-.249-1.05-.824.872 1.073.178zm3.165 13.452l1.463-.364-1.293-.7-.17 1.064zm3.178.853l-.42-1.225-.855 1.085 1.275.14zm-2.011 3.959l-1.458-1.924-.726 1.981 2.184-.057zm-12.135.379l-1.458-1.924-.726 1.982 2.184-.058zM2.657 35.938l-.989-.318.409.877.58-.559zm.356-2l-.952-.395.282.913.67-.519zm.822 14.074l-1.001-.318.408.887.593-.569z"/><path d="M2.706 48.853l-1.578-.501.653 1.398.925-.897zm16.15-1.225l-1.443-.622.45 1.394.993-.772zm-.409 1.559l-1.417-.623.425 1.405.992-.782zm-2.254-7.065l-1.135-.95-.082 1.443 1.217-.493zm5.787 10.342l-.66-.784-.26 1.014.92-.23zm-13.192-.52l-.032-1.015-1.253.569 1.285.447zm-.579-1.019l.88-.303-.784-.695-.096.998zm-1.85 2.567l1.252-.569-1.295-.785.042 1.354zm15.646-1.463l.45.557.397-.679-.847.122zM5.897 49.304l-.439.606.895.152-.456-.758zm8.815-2.53l-.648.411.764.05-.116-.462zM1.162 29.157l-.109.554.63-.158-.52-.396zm15.227 18.42l-.033.562.629-.21-.596-.352zm-4.02-12.736l-.542.122.454.304.089-.426zm-3.72.084l-1.385.393 1.204.703.181-1.096zM2.561 37.7l-.894-.956-.395 1.177 1.289-.22zm2.925-3.976l-.944-.923-.343 1.196 1.287-.273zM.855 17.671l-.61-.828.017 1.376.593-.548zm19.483 36.718l.294-1.142-1.515.29 1.22.852zm-3.184-1.044l-.255-.034.269.478-.798.078.617.648.18-.726.292.372.436-.68-.613-.108.308-.709-.97.264.534.417z"/><path d="M18.12 52.518l-.583-.744-.401.574.984.17zm-2.185.037l.869.142-.455-.727-.414.585zm4.613 2.058l-.587-.511-.261.6.848-.09zm-1.812-1.077l.983-.263-.777-.463-.206.726zm-1.213-20.922l-.58-.236.232.49.348-.254zm4.095 15.56l.034-.53-.445.385.41.145zm.5-15.291l-.579-.226.231.48.348-.254zm-6.06-4.86l-.58-.236.232.49.348-.254zm6.55 23.402l-.982-.149.326.688.657-.539zm-14.34-27.89l-.641-.192.295.488.346-.297zm-1.321-2.85l-.642-.191.32.487.322-.296zM7.02 33.99l.024-.424-.55.303.526.121zm-.878 2.812l.063-.426-.576.283.513.143zm3.974-7.006l-.478-.25.077.422.4-.172zm4.431-1.726l-.478-.25.064.422.414-.172zm7.724 3.199l.113-.459-.45.226.337.233zm-1.498-.345l-.441-.304.013.423.428-.119zm-9.313 17.07l-.478-.25.077.422.4-.172zm-2.081 4.554l-.49-.64-.411.69.992.021.76.718.573-1.151-1.424.362zm-4.133-.898l1.043-.794-1.412-.464-.11-.23-.593.506.771.293.301.69zm5.242-1.402l.232-.717-.879.345.647.372zm-2.667-.795l.205-.748-.915.41.71.338zm-.683-1.503l.384.072-.142-.482-.185.196-.872-.258.446.864.37-.392zM20.53 33.282l.358.095-.09-.474-.199.175-.81-.313.345.857.396-.34z"/><path d="M6.2 40.294l-.44.564.87.185-.43-.749zm2.964 9.467l1.055-.795-1.412-.454-.096-.24-.62.506.772.294.3.689zm-2.37-6.733l1.042-.795-1.413-.464-.096-.23-.62.507.772.293.314.689zm-3.62 6.962l1.344.34-.23-1.242.198-.187-.819-.186.073.697-.566.578zm7.583 1.955l-1.29-.595.258 1.315 1.032-.72zM19.339 52.588l1.49.133-.347-.942-1.143.809zm-3.34-1.94l.68 1.409.847-1.36L16 50.648zm-1.95 1.438l-.942 1.141 1.274.098-.622.443 1.323.435-.063-.771.82-.184-.776-.453-.057.214-.45.247-.506-1.17zm-1.658-.234l.654.615.177-.853-.831.238zm9.14-.286l-.142-.461-.37.372.511.09zm1.687.318l-.142-.45-.37.37.512.08zM7.572 36.304l-.497-.462-.043.658.54-.197zm-1.119-9.356l-.435-.515-.132.66.567-.145z"/><path d="M16.719 53.167l-.869-.142.085.664.784-.522zm1.574.353l.193-.726-.855.292.662.434zm-1.75-3.153l-1.853-.323.443 1.976 1.41-1.653zm-3.67 4.54l-4.29.134 2.885-2.8 1.405 2.666zm-5.143.108l-3.175.057 1.686-1.747 1.489 1.69zm-6.33-.86l-.078-1.692 1.67-.243-1.591 1.934zm18.757-4.822l.722-1.293-1.726.478 1.004.815zm2.378-.35l.722-1.292-1.726.477 1.004.816zm.638-6.403l-.044-1.417-1.301 1.068 1.345.35zM4.637 14.61l.237-.537-.576.261.339.275zm9.681 36.135l-.317-1.187-.962.93 1.279.257zm-1.193-3.202l-.147.174.634-.041-.281.75.958-.242-.677-.508.354-.054L13.54 47l-.415.543-.603-.585-.178.8.781-.215zM6.43 48.767l.397-1.515-1.842.82 1.445.695zm-2.71-1.312l.193-.747-.914.41.722.337z"/><path d="M7.12 47.801l.046-.181.148-.534-.217-.036.194-.726-1.28.538.562.48.548.46zm-4.647-1.548l.511.11-.147-.662-.272.252-1.181-.386.546 1.2.543-.514zm-1.31 1.978l1.506-.577-1.51-1.572.003 2.149zM.791 36.386l.917-.346-.92-.956.003 1.302zm-.068-2.168l.917-.347-.919-.945.002 1.292zm.296 9.476l.917-.346-.92-.956.003 1.302zm2.851 4.611l-.278.062.526.544.426-.606.883-.186-.842-.927-.715 1.113zm7.911-3l-.304 1.248 1.596-.177-1.292-1.07zm-3.654-4.702l-.291 1.247 1.595-.187-1.304-1.06zm-.736 4.892l-.426.607.767.134-.341-.74zm-2.07-1.205l-.965.062.688.455.276-.517zm8.064.7l-.24-1.157-.994.688 1.234.47zm5.12-4.077l-.227-1.157-.994.688 1.221.47zm-.904-3.327l-.24-1.157-.995.687 1.235.47zm-7.833 9.56l1.47.717-.031-1.428-1.44.712zm-5.503-4.104l1.483.716-.044-1.428-1.44.712z"/><path d="M8.531 42.95l-.51-.058.18.47.33-.412zm8.85-.202l-.629.189.593.267.036-.456zm-12.745.769l-.603.23.617.214-.014-.444zm1.711-4.183l-.602.231.616.214-.014-.445zm3.392 6.881l-.139.851.927-.452-.788-.399zm-7.914.883l1.023.211-.28-.859-.743.648zm19.745-1.634l-.892-.11.462.558.43-.448zm-.78-3.426l-.893-.12.45.568.443-.448zm-8.76-3.855l.05-.425-.656.168.605.257zm1.23 1.973l.05-.425-.656.158.606.267zm.594 4.374l.882-.239-.8-.398-.082.637zm-6.205-.144l.88-.303-.85-.365-.03.668zm1.133-10.908l.88-.303-.85-.365-.03.668zm-6.838 8.895l.88-.303-.85-.365-.03.668zm14.393 2.323l.883-.218-.776-.42-.107.638zm-5.94 1.012l1.156-.407-1.12-.473-.036.88z"/><path d="M5.754 45.528l1.332-.465-1.263-.554-.07 1.019zm10.119.975l1.45-.363-1.267-.702-.183 1.065zm2.833.388l-.42-1.226-.855 1.086 1.275.14zm-14.98-2.793l-1-.318.409.887.592-.569zm-.974-1.091l-1-.318.408.887.592-.57zm-.77-4.348L.98 38.35l.409.877.592-.57zm1.575.416l-.42.818 1.083-.33-.663-.488zm-.229 2.834l-.419.828 1.07-.33-.651-.498zm-.313-3.928l-.42.828 1.07-.33-.65-.498zm-.64 6.774l-1.274-.913.035 1.502 1.239-.59zm-.167-3.298l-1.273-.913.047 1.502 1.226-.59zm-.324-10.364L.61 30.159l.047 1.512 1.227-.578zm-.1-3.205L.51 26.975l.048 1.512 1.226-.599zm-.077-2.475L.433 24.5l.047 1.513 1.227-.6zm-.453-5.141l-.97-.541.047 1.512.923-.971zm17.505 23.43l-1.443-.61.45 1.393.993-.782z"/><path d="M8.651 48.03l-.031-1.015-1.253.568 1.284.447zm-.578-1.02l.88-.302-.784-.695-.096.998zm-2.3-1.621l-.438.606.894.152-.455-.758zm8.816-2.53l-.648.411.764.05-.116-.462zm1.676.794l-.033.562.629-.21-.596-.352zm5.229.599l.034-.53-.445.384.41.145zm-10.17-.18l-.479-.25.077.421.401-.171zm-3.68-5.92l-.478-.249.077.421.4-.171zm-2.535 9.565l1.043-.794-1.412-.464-.11-.23-.593.506.771.293.301.69zm5.242-1.402l.232-.727-.878.366.646.36zm-2.667-.795l.205-.748-.915.41.71.338zM7 44.016l.384.073-.142-.482-.185.196-.872-.27.446.876.37-.392zM3.265 28.148l.383.073-.142-.483-.184.197-.872-.259.446.865.369-.393zm.933 12.76l.383.061-.142-.472-.197.197-.873-.27.447.866.382-.383zm-.782-4.666l.384.062-.142-.472-.197.197-.873-.27.446.865.382-.382zm-1.378 3.07l.067-.319-.568.145.234.151-.282.75 1.03-.424-.48-.302zm2.895-.884l.384.073-.142-.483-.185.197-.897-.258.459.864.381-.393zm-3.64-14.813l.384.073-.142-.483-.185.197-.872-.259.447.865.369-.393z"/><path d="M5.17 45.642l.384.062-.142-.472-.185.186-.897-.258.446.865.395-.383zm2.641.743l-.29.062.525.545.426-.606.884-.187-.842-.926-.703 1.112zm2.043-2.53l-.44.564.857.185-.417-.75zM7.61 39.934l-.44.564.857.185-.417-.75z"/><path d="M19.456 41.681l.05-.425-.668.17.618.255zm-.914.41l-.478-.25.076.421.402-.171zm-1.481-.23l-.44.565.857.185-.417-.75zM9.053 45.85l1.055-.795-1.412-.464-.096-.23-.62.506.772.294.301.69zm5.94-5.119l1.392-.17-.846-1.032.082-.236-.835.132.426.6-.22.706zM3.062 46.08l1.345.339-.23-1.242.198-.197-.819-.165.072.686-.566.579zm-1.352-5.04l1.345.34-.217-1.243.185-.196-.82-.186.073.696-.566.59zm14.016 4.517l-1.42-.729-.003 1.112 1.423-.383zm4.738-2.107l-1.421-.739-.003 1.123 1.424-.384zm2.04 1.842l.635.001-.27-.478-.366.477zm-.827-2.038h.636l-.27-.478-.366.477zm.677 2.943h.635l-.269-.478-.366.477zM13.66 41.65l.635-.02-.269-.479-.366.499zm-.162.904l.635.002-.269-.479-.366.477zm-3.604.537h.635l-.27-.478-.365.478zm9.209 1.935l.065-.743-.75.415.685.328z"/><path d="M19.755 46.756l.065-.743-.749.415.684.328zm2.17.303l.052-.743-.75.415.697.328zm-6.046-.32l.68 1.409.846-1.36-1.526-.048zm.025 1.62l-1.865-.313.468 1.965 1.397-1.652zm4.127-2.924l.722-1.293-1.726.477 1.004.816zm2.624-8.72l.384.093-.09-.463-.198.176-.81-.324.332.868.382-.35zM21.56 39.87l.635.002-.269-.479-.366.477zm-.218-1.687l-.893-.11.462.558.43-.447zm-.077-1.225l.035-.53-.446.384.411.146zm-2.434-7.948l.035-.53-.446.384.411.146zm-1.733 2.277l.035-.53-.446.384.411.146zm.521 4.462l.034-.53-.445.384.411.146zm1.837 4.283l.358.094-.09-.463-.199.165-.81-.313.345.857.396-.34zm2.343-10.374l.36.095-.092-.474-.198.175-.797-.324.332.868.395-.34zM7.607 30.849l.358.094-.078-.463-.198.175-.81-.324.332.869.396-.351z"/><path d="M14.567 36.9l.359.095-.09-.463-.199.165-.81-.314.344.857.396-.34zm7.696 1.093l.635-.02-.269-.468-.366.488zm-.149.915l.635.002-.269-.48-.366.478zm-2.588.547l.066-.743-.75.415.684.328zm-7.124 2.552l.065-.743-.749.415.684.328zm7.913-7.002l.066-.743-.75.415.684.328zm1.38 4.753l.054-.743-.75.404.697.339zM11.06 39.72l.066-.743-.75.415.684.328zm7.862-1.75l1.685-.158-1.352-.985-.333 1.144zm3.162 3.586l.721-1.293-1.725.477 1.003.816zm-9.717 2.167l.722-1.293-1.725.477 1.003.816zm1.826 3.119l-.317-1.197-.962.94 1.279.257zM3.354 20.439l-.495-.376.068.549.427-.173zm.599-2.39l-.495-.376.068.549.427-.173zm12.41-5.384l.545.343-.144-.546-.4.203zm-3.567 5.373l.544.321-.144-.525-.4.204zm1.759 5.058l-.392.457.631-.126-.239-.331zM16.3 17.96l.346.476.11-.533-.456.057zm1.957 2.437l.346.487.11-.533-.456.046zm9.158 34.034l-1.176-1.043-.512 1.096 1.688-.053zm-1.477-3.362l-.147.174.634-.03-.282.728.958-.242-.676-.487.354-.064-.426-.622-.415.543-.603-.585-.178.8.78-.215zm3.034-26.074l.735-.076-.483-.408-.252.484zm-3.771 28.51l-.692.234.774.357.052-.764.998-.582-1.542-.566.41 1.321zm-.206-5.37l-.292 1.247 1.583-.177-1.291-1.07zm-2.154-11.98l-.145.639.912-.081-.767-.559zm1.769 15.93l-.155-.896-.784.522.939.373zm1.54-3.543l-.239-1.157-.995.688 1.235.47zm-3.157 1.412l1.484.716-.045-1.428-1.439.712zm7.192-3.665l-.63.189.593.267.037-.456zm.87-20.11l-.604.178.567.257.037-.435zm-2.845 8.58l-.628.21.604.245.024-.456zm6.126 14.258l-.893-.12.462.557.43-.437zm1.616 1.696l-.893-.11.45.558.443-.448zm-.082 1.464l-.892-.11.449.558.443-.448zm-10.854-4.975l.05-.425-.655.169.605.256zm1.603.86l.882-.24-.8-.398-.082.638zm2.47.188l.883-.219-.775-.42-.107.639zm-5.94 1.01l1.156-.416-1.12-.473-.036.89zm3.269-10.867l1.156-.407-1.12-.473-.036.88zm-3.75 3.631l1.157-.417-1.12-.462-.036.88zm7.702-8.498l1.339-.253-1.114-.675-.225.928zm-6.96-4.387l1.256-.463-1.236-.512-.02.975zm3.252 4.874l-.465-1.066-.693 1.007 1.158.059zm3.184 4.294l-.466-1.076-.692 1.016 1.158.06zm-4.597 2.102l-.466-1.066-.68 1.006 1.146.06zm.627-8.383l-.466-1.076-.692 1.017 1.158.059zm9.33 2.937l-.48-1.075-.679 1.016 1.158.06zM25.14 36.125l-.249-1.051-.824.873 1.073.178z"/><path d="M28.317 49.554l1.462-.363-1.292-.7-.17 1.063zm3.178.854l-.42-1.226-.855 1.086 1.275.14zm-2.011 3.959l-1.458-1.924-.726 1.981 2.184-.057zm2.038-7.136l-1.442-.622.425 1.395 1.017-.773zm-.408 1.558l-1.418-.622.426 1.405.992-.783zm-2.254-7.064l-1.135-.95-.082 1.443 1.217-.493zm5.787 10.342l-.66-.784-.26 1.014.92-.23zm.012-.424l.45.557.398-.679-.848.122zm-7.28-5.256l-.648.412.764.05-.116-.462zm1.677.794l-.033.562.603-.209-.57-.353zm-4.02-12.736l-.542.122.454.304.088-.426zm7.943 19.548l.295-1.142-1.516.29 1.221.852z"/><path d="M29.808 52.936l-.255-.034.269.478-.798.078.617.648.181-.726.291.372.436-.68-.613-.108.308-.709-.983.264.547.417zm.991-.814l-.582-.744-.414.574.996.17zm-2.184.036l.868.142-.454-.726-.414.584zm4.613 2.058l-.588-.511-.26.601.848-.09zm-1.813-1.076l.983-.264-.777-.462-.205.726zm-1.2-20.923l-.58-.236.232.49.348-.254zm4.095 15.56l.034-.53-.445.384.411.146zm.5-15.291l-.579-.226.231.48.348-.254zm-6.06-4.86l-.58-.236.232.49.348-.254zm6.538 23.402l-.983-.149.327.689.656-.54zm-8.061-23.355l-.478-.25.064.422.414-.172zm7.723 3.2l.113-.46-.45.226.337.233zm-1.497-.346l-.441-.303.013.423.428-.12zm-9.288 17.07l-.478-.25.077.421.4-.171zm9.07-14.713l.358.095-.09-.474-.199.176-.81-.313.345.857.395-.34zM35.837 42.196l-.044-1.417-1.3 1.067 1.344.35zm-8.855 8.163l-.317-1.186-.962.93 1.28.256zm10.278.356l-.122.174.635-.03-.283.728.946-.241-.65-.488.353-.064-.426-.622-.428.543-.59-.585-.178.8.743-.215zm1.145 1.277l.912.713-.06-1.925-.852 1.212zm-1.677-.815l-.943 1.14 1.274.099-.622.442 1.31.436-.062-.771.833-.185-.777-.462-.057.213-.45.247-.506-1.16z"/><path d="M38.32 50.004l-.316-1.186-.962.93 1.278.256zm-12.516-2.848l-.147.174.634-.041-.281.75.958-.242-.677-.508.354-.053-.426-.622-.415.542-.602-.585-.179.8.781-.215zm-1.366-2.244l-.304 1.248 1.596-.177-1.292-1.07zm1.604-.304l-.24-1.157-.994.687 1.234.47zm5.12-4.077l-.226-1.157-.995.687 1.222.47zm-.904-3.328l-.24-1.157-.994.688 1.234.47zm-7.795 9.56l1.471.716-.032-1.428-1.439.712zm7.613-4.42l-.63.19.593.267.037-.457zm4.151 2.729l-.893-.11.462.557.431-.447zm-.78-3.427l-.894-.12.45.568.443-.448zm-8.761-3.855l.05-.425-.655.17.605.255zm1.243 1.973l.05-.425-.668.158.618.267zm.594 4.375l.882-.24-.8-.398-.082.638zm2.47.176l.883-.218-.775-.42-.107.638zm-5.94 1.012l1.157-.407-1.12-.473-.037.88zm5.489.781l1.45-.363-1.268-.701-.182 1.064z"/><path d="M32.123 41.282l.038-.425-.656.17.618.255zm-.927.41l-.478-.25.076.422.401-.172zm-1.469-.23l-.44.565.857.185-.417-.75zm-2.068-1.13l1.392-.171-.833-1.033.082-.235-.835.132.426.6-.232.706zm.735 4.825l-1.42-.729-.004 1.112 1.424-.383zm4.763-2.108l-1.421-.739-.003 1.123 1.424-.384zm2.014 1.843l.635.001-.269-.478-.366.477zm-.826-2.039l.635.002-.269-.479-.366.477zm.676 2.944h.636l-.27-.478-.366.477zm-8.693-4.556l.634-.02-.269-.478-.365.498zm-.15.904l.635.002-.269-.479-.366.477zm5.63 2.471l.066-.743-.75.415.684.328zm.625 1.717l.066-.743-.75.415.684.328zm2.17.302l.053-.742-.75.415.697.327zm-6.046-.319l.68 1.408.847-1.36-1.527-.048zm.013 1.62l-1.865-.313.468 1.965 1.397-1.653z"/><path d="M32.7 45.036l.722-1.293-1.726.477 1.004.816zm2.624-8.72l.385.093-.091-.463-.198.176-.81-.324.331.868.383-.35zm-1.095 3.157h.635l-.27-.478-.365.478zm-.231-1.687l-.893-.11.462.557.431-.447zm-.064-1.226l.035-.53-.446.384.411.146zM31.5 28.612l.035-.53-.446.384.411.146zm-1.733 2.277l.035-.53-.446.384.411.146zm.52 4.462l.035-.53-.445.384.41.146zm1.825 4.283l.358.095-.09-.463-.198.165-.81-.314.344.858.396-.34zm2.344-10.374l.358.095-.09-.474-.198.176-.798-.324.332.868.396-.34zm-7.232 7.256l.359.094-.091-.463-.198.165-.81-.313.344.857.396-.34zm7.709 1.093l.634-.02-.268-.468-.366.488zm-.15.915l.636.001-.27-.479-.366.478zm-2.587.546l.066-.743-.75.415.684.328zm-7.138 2.553l.066-.744-.75.416.684.328zm7.952-7.003l.065-.743-.75.415.685.328z"/><path d="M34.365 39.363l.053-.743-.75.405.697.338zm-10.636-.038l.066-.743-.75.415.684.328zm7.09-2.826l1.686-.159-1.365-.973-.32 1.132zm3.958 4.661l.722-1.292-1.738.477 1.016.815zm-9.716 2.167l.722-1.293-1.726.478 1.004.815zm1.813 3.12l-.317-1.197-.961.94 1.278.257zm.745-31.444l.544.332-.143-.524-.4.192zm-3.022 6.171l.544.332-.144-.546-.4.214z"/><path d="M25.211 23.843l-.392.457.631-.126-.239-.331zm11.955 23.911l-.292 1.248 1.596-.177-1.304-1.071zm1.18.387l-.226-1.158-.995.688 1.222.47zm-3.132 1.41l1.471.716-.044-1.427-1.427.711zm2.023-2.752l.05-.425-.655.169.605.256zm-1.866 2.07l1.168-.418-1.132-.473-.036.89zm-.48-7.237l1.168-.417-1.132-.463-.036.88zm.766-12.886l1.256-.463-1.236-.512-.02.975zm3.114 6.148l-.099-2.347-1.338 1.069 1.437 1.278zm.12 3.808l-.1-2.347-1.338 1.079 1.437 1.268zm.05 2.825l.011-1.663-1.37.89 1.358.773zm.141 3.32l-.098-2.348-1.339 1.08 1.437 1.267zm-1.612-4.852l-.466-1.065-.693 1.006 1.159.06zm.652-8.383l-.478-1.076-.68 1.017 1.158.059zm-.76 4.1l-.25-1.052-.811.873 1.06.178zm-.129-1.659l-.555.123.454.304.101-.427z"/><path d="M36.327 47.22l-.478-.25.064.42.414-.17zm2.843 2.769l-.29-1.188-.963.93 1.253.258zm-1.18-3.203l-.121.173.634-.04-.282.749.946-.241-.652-.51.342-.052-.4-.623-.429.543-.602-.585-.166.8.73-.214zm-1.366-2.244l-.291 1.248 1.595-.177-1.304-1.07zm1.604-.304l-.227-1.157-.994.687 1.221.47zm-1.357-6.839l.05-.425-.655.169.605.256zm1.23 1.973l.05-.425-.655.158.606.267zm-2.875 5.563l1.169-.407-1.133-.473-.036.88zm.966-1.618l-.478-.25.064.422.414-.172zm1.04-2.076l.066-.743-.75.415.684.328zm-1.304-2.288l.066-.743-.75.415.684.328zm1.295 4.004l.721-1.293-1.725.477 1.004.816zm1.812 3.119l-.291-1.198-.962.94 1.253.258zm-2.251-25.273l.544.332-.144-.546-.4.214zm.617 2.67l-.405.457.632-.126-.227-.332zm-11.586-4.804l.346.486.11-.533-.456.047zm5.087 1.344l.345.486.11-.532-.455.046z"/></g></g><g style="mix-blend-mode:multiply" opacity=".3"><path d="M36.43 15.707H17.44a2.29 2.29 0 01-1.67-.723l-2.449-2.61a2.29 2.29 0 00-1.672-.723H3.676a2.29 2.29 0 00-2.29 2.29v25.542a2.293 2.293 0 002.292 2.293h32.748a2.293 2.293 0 002.293-2.293V17.998a2.29 2.29 0 00-2.288-2.29z" fill="url(#paint3_linear)"/><path d="M42.158 28.112l-28.771-8.078a.885.885 0 01-.521-.394.792.792 0 01-.088-.622l4.818-17.157a.793.793 0 01.398-.486.886.886 0 01.65-.066l28.771 8.078c.22.062.407.204.522.394.114.19.145.415.087.622l-4.817 17.158a.793.793 0 01-.399.486.885.885 0 01-.65.065z" fill="#fff"/><path opacity=".5" d="M13.39 20.02l28.771 8.078a.86.86 0 001.061-.596L18.945.232a.86.86 0 00-1.06.596l-5.09 18.131a.86.86 0 00.595 1.06z" fill="url(#paint4_linear)"/><path d="M26.585 16.33l4.242 1.192-1.191 4.241-4.242-1.19 1.19-4.242zm5.581 1.568l4.242 1.19-1.19 4.242-4.243-1.19 1.191-4.242zm5.434 1.525l4.242 1.191-1.191 4.242-4.242-1.19 1.191-4.243z" fill="#E3EFF9"/><path d="M30.759 8.226l.04.017c-.002-.002-.011-.01-.04-.017zm10.49 2.945c.003 0 .006.002.009 0-.006-.001-.01-.002-.01 0zm-8.942-2.283c-.005-.002-.01 0-.013-.002l.013.002z" fill="#E6F1FA"/><path d="M30.201 8.282l1.271.384.838.227c.133.012.353.1.51.124l.053.028a.665.665 0 01.167.043l-.005.003c.08.013.167.043.206.048l-.003-.001.093.026h-.02c.139.028.277.067.399.105l-.006-.021c.258.091.364.086.593.172l-.001.003c.31.043.465.162.784.209-.037-.005.016.012.01.016.144.037.295.075.306.047.105.03.082.033.092.05.004-.015.095.007.176.03l-.038-.005.236.06-.038-.038c.12.042.022.04.142.067l.006-.021c.168.05.26.112.417.175.682.201 1.432.353 2.055.57l.023.025c.007.027.185.013.202.043l.075.01c.02.01.062.027.023.022.068.02.073.016.121.024l.068.035c.267.086.504.122.787.209.334.124.982.277 1.357.367.532.11 1.11.374 1.651.483.018.009.065.014.064.01l.486.137s2.361.672.619-.025l.014-.002a3.362 3.362 0 00-.623-.163c-.02-.038-.218-.065-.277-.091h.006c-.169-.022-.33-.112-.492-.137.006 0 .012-.008.048.002-.116-.028-.273-.065-.277-.085-.275-.072-.653-.187-.835-.208l.014-.002c-.104-.01-.131-.032-.245-.055-.005-.003-.014-.007-.011-.009-.113-.012-.318-.085-.408-.103l-.002-.014-.216-.06.08.022c-.037.025-.155-.067-.32-.09-.146-.045-.316-.014-.465-.072-.077-.002.072-.007-.041-.025.001-.02.053.003.03-.019-.11-.021-.17-.067-.305-.091l-.001-.014c-.178-.023-.32-.11-.44-.118-.179-.038-.107-.073-.298-.099l-.067-.038c-.078-.026-.06.006-.147-.028.008-.01-.106-.04-.055-.035-.193-.073-.408-.087-.66-.191-.06.006-.19-.044-.238-.04-.005-.01-.263-.075-.109-.055.013.001.037.008.035.011l.022-.007c-.142-.067-.274-.061-.42-.108.042.015.1.032.06.03l-.137-.04.032-.003-.202-.064.025.022c-.097-.035-.126-.068-.244-.08-.053-.003.089.044-.017.02-.13-.046-.326-.116-.497-.168.014.023-.034.006-.082-.004l-.002-.014c-.185-.032-.058-.047-.24-.083l.02-.004-.055.016c-.17-.019-.079-.052-.269-.066.072.018.028.039-.06.008l.025-.006c-.05-.01-.068-.01-.1-.022.032 0 .02-.014-.048-.033l.052-.005-.142-.015c-.1-.044-.271-.072-.307-.102 0 0-.221-.071-.277-.066.048 0-.072-.04-.034-.044a1.054 1.054 0 01-.3-.073l.013.002c-.247-.089-.438-.1-.66-.183.006.02-.11-.023-.086.004-.24-.047-.417-.161-.52-.122-.109-.027-.122-.05-.175-.069l.026.007c-.2-.05-.26-.066-.408-.11-.074-.015-.097.012-.228-.035.047.002-.008-.012-.058-.026.033.007.043.006-.02-.021-.01.001-.024-.001-.038-.003 0-.002-.003-.003 0-.004-.084-.02-.07-.012-.034 0-.002.002.001.005.011.011-.082-.038-.24-.065-.247-.089-.254-.065-.436-.095-.645-.146-.02-.017.03-.01.091 0l-.147-.04c.006-.015.087.014.133.025-.168-.073-.367-.078-.568-.158h-.046l-.013-.006c-.001.005-.049.002-.08-.003-.025-.021.01-.029-.091-.057-.078-.035-.23-.059-.338-.081.057.017.033.019.01.018-.05-.014-.078-.035-.117-.04v-.02c.013.023-.139-.02-.158-.02-.025-.02.082.012.095.008l-.306-.086c-.112-.018.013.023-.041.022-.096-.024-.195-.04-.302-.08l.032.025a1.957 1.957 0 01-.41-.12c-1.38-.256-.33.087-.33.087.518.185.804.218 1.437.384l.001.005zm.01 1.902l.04.017c-.001-.002-.011-.009-.04-.017zm10.49 2.941c.004.001.008.002.01.001h-.01zm-8.942-2.277c-.005-.002-.01 0-.013-.002l.013.002z" fill="#E6F1FA"/><path d="M29.651 10.236l1.271.384.838.228c.132.012.353.099.51.123l.053.03a.665.665 0 01.167.042l-.004-.001c.08.013.167.043.206.048l-.004.003.094.024h-.02c.138.028.277.067.398.104l-.005-.02c.257.091.364.086.592.172l-.003-.001c.31.042.465.161.784.208-.038-.004.016.012.01.016.144.037.295.076.306.048.105.03.082.033.091.049.004-.013.096.007.177.03l-.038-.005.236.06-.038-.037c.12.041.022.039.142.067l.005-.018c.168.05.26.112.417.175.682.201 1.431.353 2.055.569l.023.026c.006.027.185.013.202.043l.075.01c.02.01.062.027.023.021.068.021.073.017.121.025l.068.034c.267.087.504.123.787.21.334.124.982.277 1.357.367.532.11 1.11.374 1.651.483.017.009.065.014.064.01l.485.14s2.361.673.618-.024l.015-.002a3.356 3.356 0 00-.623-.163c-.02-.039-.218-.065-.277-.092l.005.002c-.168-.022-.33-.112-.492-.136.006 0 .012-.008.048.002-.116-.03-.273-.065-.277-.086-.275-.071-.652-.187-.835-.207l.014-.002c-.104-.01-.13-.033-.245-.055-.005-.004-.013-.008-.01-.01-.114-.012-.319-.085-.409-.102l-.002-.014-.217-.057.081.022c-.038.025-.156-.067-.32-.09-.147-.045-.317-.015-.466-.072-.077-.002.072-.007-.041-.025.001-.02.053.003.03-.019-.11-.021-.17-.067-.304-.091l-.002-.014c-.178-.023-.32-.11-.44-.118-.179-.038-.107-.073-.297-.099l-.068-.038c-.078-.026-.06.006-.147-.028.008-.01-.106-.04-.054-.035-.193-.073-.409-.087-.661-.191-.06.006-.19-.044-.238-.04-.005-.01-.262-.075-.109-.055.013.001.037.008.036.011l.021-.007c-.142-.067-.274-.061-.42-.108.042.015.1.032.06.03l-.137-.039.032-.002-.202-.065.025.023c-.097-.035-.127-.069-.244-.08-.053-.003.089.044-.017.02-.13-.046-.327-.117-.497-.168.013.023-.034.006-.082-.004l-.002-.014c-.185-.033-.059-.048-.24-.083l.02-.004-.055.015c-.17-.018-.079-.05-.27-.065.073.018.029.039-.06.008l.025-.007c-.05-.01-.067-.009-.098-.021.03 0 .02-.014-.05-.034l.053-.005-.142-.014c-.1-.044-.271-.072-.308-.102 0 0-.22-.072-.276-.066.048 0-.072-.04-.034-.044a1.055 1.055 0 01-.3-.073l.012.003c-.247-.088-.438-.1-.66-.183.007.021-.11-.023-.086.005-.24-.048-.417-.162-.52-.123-.108-.026-.121-.05-.174-.068l.026.003a8.38 8.38 0 01-.408-.11c-.073-.015-.096.012-.227-.035.046.002-.008-.012-.059-.026.033.007.043.006-.02-.021-.01.001-.024-.001-.037-.003 0 0-.003-.003-.001-.004-.084-.02-.07-.012-.033 0-.003.002 0 .005.01.011-.082-.039-.24-.065-.247-.089-.253-.065-.435-.095-.644-.146-.02-.017.03-.01.09 0l-.148-.037c.006-.014.087.015.133.025-.168-.072-.367-.077-.568-.157l-.046-.001-.012-.006c-.002.006-.05.002-.08-.003-.026-.02.01-.028-.092-.056-.077-.036-.23-.06-.338-.082.057.018.033.02.01.018-.05-.014-.077-.035-.117-.04v-.02c.013.023-.138-.019-.158-.019-.025-.02.082.012.095.008l-.306-.084c-.112-.018.013.023-.041.021-.097-.023-.195-.04-.303-.079l.032.025a1.958 1.958 0 01-.409-.121c-1.38-.256-.331.087-.331.087.52.185.805.219 1.438.385l.008-.008zm-.522 3.797l.04.017c0-.004-.011-.01-.04-.017zm10.49 2.941c.004.001.008.002.01 0h-.01zm-8.942-2.277c-.005-.002-.01-.001-.013-.002l.013.002z" fill="#E6F1FA"/><path d="M28.57 14.087l1.271.384.837.227c.133.012.353.1.51.124l.054.029a.669.669 0 01.166.043l-.004.002c.08.013.166.043.206.048l-.005.003.094.025h-.02c.139.027.277.066.399.104l-.006-.021c.258.092.364.087.593.172l-.001.004c.31.042.465.161.784.208-.037-.005.016.012.01.016.144.037.295.076.306.048.105.03.083.033.092.049.004-.015.095.007.176.03l-.038-.005.236.06-.038-.038c.12.042.022.04.142.068l.006-.022c.168.051.26.112.417.175.682.201 1.432.354 2.055.57l.024.026c.006.026.184.012.201.043l.075.009c.02.01.063.027.023.022.069.02.073.017.122.024l.068.035c.267.087.503.122.786.209.334.125.982.278 1.357.367.532.111 1.11.374 1.652.483.017.01.064.015.063.01l.485.14s2.361.673.619-.024l.014-.002a3.364 3.364 0 00-.623-.163c-.02-.038-.218-.065-.277-.091l.005.001c-.168-.022-.33-.112-.492-.136.006 0 .012-.008.048.002-.116-.029-.273-.065-.277-.086-.275-.071-.652-.187-.835-.207l.014-.002c-.104-.01-.13-.033-.245-.055-.005-.003-.013-.008-.01-.009-.114-.012-.319-.085-.409-.103l-.002-.014-.216-.06.08.024c-.037.024-.155-.067-.32-.09-.146-.045-.316-.015-.465-.072-.077-.003.072-.007-.041-.026.001-.019.053.004.03-.018-.11-.022-.17-.067-.304-.092l-.002-.014c-.178-.023-.32-.109-.44-.117-.179-.039-.107-.073-.298-.1l-.067-.038c-.078-.025-.06.007-.147-.027.008-.01-.106-.04-.055-.035-.193-.074-.408-.088-.66-.192-.06.007-.19-.043-.238-.04-.005-.01-.263-.075-.109-.055.013.002.037.008.035.012l.022-.008c-.142-.067-.274-.061-.42-.108.042.016.1.032.06.03l-.138-.038.032-.003-.201-.064.025.023c-.097-.035-.127-.069-.244-.08-.053-.004.089.044-.017.02-.131-.047-.327-.117-.497-.169.013.023-.035.006-.082-.003l-.002-.015c-.185-.032-.059-.047-.241-.083l.02-.004-.055.016c-.17-.018-.078-.051-.269-.066.073.019.029.04-.06.008l.025-.006c-.05-.01-.067-.01-.099-.022.031 0 .02-.014-.049-.033l.052-.005-.141-.014c-.1-.044-.271-.073-.308-.102 0 0-.22-.072-.276-.066.048 0-.073-.04-.035-.045a1.052 1.052 0 01-.3-.073l.013.004c-.247-.089-.438-.1-.66-.183.006.02-.11-.023-.086.005-.24-.048-.417-.162-.52-.123-.109-.027-.122-.05-.175-.069l.027.004c-.2-.05-.26-.067-.408-.11-.074-.016-.097.011-.227-.035.046.001-.009-.012-.06-.027.034.008.044.007-.019-.02l-.038-.003c0-.002-.003-.003 0-.005-.084-.02-.07-.012-.034 0-.002.002.001.005.011.012-.082-.039-.24-.066-.247-.09-.253-.064-.436-.094-.645-.145-.02-.018.03-.011.092 0l-.15-.038c.007-.014.088.015.134.026-.169-.072-.367-.078-.568-.157l-.046-.002-.012-.005c-.002.005-.05.002-.081-.003-.025-.021.01-.029-.091-.057-.077-.035-.23-.059-.338-.081.057.018.033.019.01.018-.05-.014-.078-.035-.117-.04v-.02c.013.023-.138-.02-.158-.02-.025-.02.082.012.095.008l-.307-.084c-.111-.018.013.023-.04.022-.097-.024-.196-.04-.303-.08l.032.025a1.96 1.96 0 01-.409-.12c-1.38-.256-.331.087-.331.087.519.185.805.218 1.438.384l.005-.01zm.055-2.354l.02.011c0-.003-.004-.007-.02-.011zm5.636 1.578h.006-.006zm-4.832-1.123h-.007l.007.002v-.002z" fill="#E6F1FA"/><path d="M28.3 11.847c.296.09.369.142.678.217l.452.12c.075-.005.19.053.275.057l.027.021c.03 0 .065.007.091.022v.004c.043.002.09.021.11.021l-.001.004.05.012-.01.003c.075.01.15.03.215.052v-.02c.135.058.196.04.318.096l-.002.003c.173.005.244.1.422.107-.02 0 .007.01.004.015.076.018.16.037.168.008.054.016.043.022.048.037.004-.012.054-.004.095.008h-.02l.128.03-.018-.032c.065.025.01.035.072.047l.006-.022c.09.03.134.077.22.12.364.112.774.169 1.105.303l.01.022c0 .025.103-.01.111.018h.043c.01.007.033.019.01.018.036.012.037.007.067.01l.036.025c.14.051.275.058.424.107.176.08.527.15.731.192.29.043.589.228.886.268.008.006.037.007.035.002l.26.077s1.267.365.358-.098l.008-.003a.979.979 0 00-.336-.083c-.01-.035-.116-.036-.148-.055h.005c-.097-.002-.175-.07-.266-.073.004 0 .009-.01.029-.004-.063-.013-.148-.03-.148-.049-.145-.035-.35-.102-.452-.1l.01-.003c-.06.003-.074-.017-.134-.024-.003-.002-.006-.005-.006-.007-.063.002-.172-.045-.219-.05v-.014l-.118-.029.043.014c-.024.028-.084-.047-.173-.048-.078-.026-.181.022-.257-.014-.044.007.044-.015-.02-.02.004-.018.03-.003.02-.021-.06-.007-.088-.044-.16-.05v-.015c-.097 0-.17-.067-.236-.06-.098-.016-.052-.057-.158-.06l-.03-.028c-.043-.016-.038.013-.082-.009.007-.01-.057-.026-.027-.027-.103-.048-.223-.036-.355-.106-.037.013-.103-.019-.133-.01-.001-.01-.14-.041-.055-.04.008 0 .019.003.018.006l.012-.01c-.072-.047-.148-.026-.226-.053.023.01.053.018.033.022l-.072-.022.018-.006-.106-.038.01.019c-.052-.023-.063-.051-.13-.049-.03.004.045.032-.012.022l-.263-.103c.004.021-.022.01-.046.007l.003-.013c-.102-.01-.027-.039-.127-.051l.012-.007-.034.022c-.094.003-.039-.04-.146-.031.036.008.01.034-.036.015l.017-.009c-.027-.004-.039-.001-.056-.01.02-.002.014-.015-.026-.026l.03-.011-.078.003c-.05-.03-.145-.037-.163-.062 0 0-.118-.042-.151-.03.027-.006-.036-.03-.014-.04a.316.316 0 01-.165-.034h.007c-.13-.056-.24-.044-.355-.097 0 .02-.061-.01-.05.014-.132-.017-.22-.106-.282-.055-.059-.013-.065-.034-.092-.046h.015l-.217-.056c-.041-.006-.057.023-.125-.006.027-.004-.003-.01-.03-.018.019.003.024 0-.008-.018-.006.002-.014.002-.02.002v-.004c-.047-.01-.039-.003-.021.004-.003.001-.001.003.005.01-.043-.028-.13-.036-.13-.057-.135-.032-.238-.04-.351-.063-.01-.015.02-.014.053-.01l-.08-.02c.004-.014.047.004.075.01-.087-.05-.201-.031-.307-.084l-.026.004-.007-.004c-.001.006-.03.008-.046.007-.015-.018.01-.029-.046-.044-.04-.025-.124-.03-.184-.038.03.01.016.014.003.016-.027-.007-.04-.025-.063-.025l.005-.018c.006.02-.076-.002-.087 0-.014-.017.046.002.054-.004l-.163-.044c-.063-.004.006.021-.027.026-.055-.012-.106-.014-.163-.04l.014.02a.576.576 0 01-.22-.068c-.758-.081-.2.124-.2.124.283.119.441.116.784.201l-.022-.016z" fill="#E6F1FA"/><path d="M19.605 4.907l6.926 1.945-1.944 6.926-6.927-1.944 1.945-6.927z" fill="#CEE4D0"/><path d="M38.183 19.379H17.437a2.29 2.29 0 00-1.668.72l-2.448 2.6a2.29 2.29 0 01-1.668.72H2.29a2.29 2.29 0 00-2.28 2.498l1.184 13.771a2.293 2.293 0 002.283 2.084h33.15a2.293 2.293 0 002.283-2.084l1.552-17.81a2.29 2.29 0 00-2.279-2.5z" fill="#FDD390"/><mask id="c" maskUnits="userSpaceOnUse" x="0" y="19" width="41" height="23"><path d="M38.183 19.379H17.437a2.29 2.29 0 00-1.668.72l-2.448 2.6a2.29 2.29 0 01-1.668.72H2.29a2.29 2.29 0 00-2.28 2.498l1.184 13.771a2.293 2.293 0 002.283 2.084h33.15a2.293 2.293 0 002.283-2.084l1.552-17.81a2.29 2.29 0 00-2.279-2.5z" fill="#FDD390"/></mask><g mask="url(#c)"><mask id="d" maskUnits="userSpaceOnUse" x="-2" y="12" width="43" height="43"><path d="M40.08 40.18l-.853-27.275-40.317.583L.206 54.936l25.373-.793c8.241-.258 14.733-6.51 14.5-13.964z" fill="url(#paint5_linear)"/></mask><g mask="url(#d)" fill="#FCAE7A" fill-opacity=".5"><path d="M14.707 54.83l-1.177-1.043-.512 1.096 1.688-.053zm-1.453-3.363l-.147.174.635-.03-.282.728.958-.242-.676-.487.354-.064-.427-.621-.415.542-.602-.585-.179.8.781-.215zM6.56 52.703l.397-1.526-1.842.82 1.445.706zm-2.71-1.323l.193-.747-.915.41.722.337zM.982 35.272l.965-.03-.629-.594-.336.624zm2.991-5.937l.757-.161-.557-.364-.2.525zM9.23 26.79l.757-.183-.57-.352-.187.535zm7.034-1.385L17 25.33l-.483-.409-.252.484z"/><path d="M6.004 35.325l.73-.214-.595-.32-.135.534zM3.902 37.21l.73-.213-.581-.331-.149.544zm-.96-4.31l.755-.215-.594-.33-.161.545zm-.26-10.748l.73-.213-.595-.33-.135.543zm4.57 29.562l.046-.181.149-.534-.218-.036.194-.725-1.28.537.562.48.548.46zm-4.647-1.548l.512.11-.148-.661-.272.262-1.181-.407.546 1.21.543-.514zm9.925 3.712l-.691.234.773.357.053-.764.998-.582-1.543-.566.41 1.321zM1.294 52.135l1.507-.577-1.51-1.572.003 2.149zm2.709.063l-.278.062.525.544.426-.606.884-.186-.843-.927-.714 1.113zm8.321-3.69l-.291 1.248 1.583-.177-1.292-1.071zm-2.153-11.98l-.146.64.913-.082-.767-.558zm-.7 3.642l-.145.619.925-.071-.78-.548zm-1.96 9.23l-.426.606.767.134-.341-.74zM4.518 34.969l-.963.062.688.465.275-.527zm-.505-3.976l-.964.062.688.455.276-.517zm-1.152-1.096l-.964.062.687.454.277-.516zm2.604 18.285l-.963.062.687.455.276-.517zm1.437 6.127l1.54.482-.296-1.336-1.244.854zm-5.458.171l.581.723.663-1.577-1.244.854zm10.52-2.023l-.154-.895-.785.522.94.373zm1.567-3.542l-.24-1.157-.994.687 1.234.47zm-3.816-5.428l-.868-.926-.477 1 1.345-.074zm-.633-3.971l-.867-.926-.477 1 1.344-.074zm-6.747-6.914l-.867-.926-.477 1 1.344-.074zm5.818 20.281l.344 1.239.494-.46.838.789.387-1.018-1.075.14.4-.585-1.388-.105zm2.208-2.556l1.483.715-.044-1.427-1.44.712zm.08-14.93l-.512-.09.142.462.37-.371zm-1.433 2.967l-.51-.09.14.451.37-.36zm-.331 8.5l-.51-.057.18.47.33-.412zM3.707 26.08l-.63.158.58.3.05-.458zm13.82 20.582l-.63.19.593.266.037-.456zm.896-20.11l-.592.177.555.258.037-.435z"/><path d="M15.554 35.133l-.63.21.606.246.024-.456zM4.757 47.454l-.602.23.617.225-.015-.455zm-.883 5.067l.557 1.57.312-.179.511.09-.176-.365.694-.55-1.898-.566zm5.986-2.39l-.138.852.926-.452-.788-.4zm-7.914.883l1.023.212-.28-.86-.743.648zm19.746-1.623l-.893-.12.462.557.43-.437zm1.603 1.697l-.893-.11.45.558.443-.448zm-.081 1.463l-.893-.11.45.558.443-.448zM12.36 47.576l.05-.425-.656.17.606.255zm1.602.86l.882-.239-.8-.398-.082.638zm-6.205-.144l.88-.292-.85-.376-.03.668zm8.676.332l.883-.218-.776-.42-.107.638zm-5.94 1.012l1.155-.418-1.12-.473-.035.89zm3.256-10.868l1.156-.407-1.12-.473-.036.88zm-3.75 3.631l1.156-.417-1.12-.462-.036.88zm-4.15 7.043l1.333-.444-1.263-.564-.07 1.008zm.21-19.305l1.36-.392-1.239-.597-.122.989zm9.884 4.052l1.34-.253-1.114-.675-.226.928zm-5.19-4.675l1.256-.463-1.223-.512-.033.975zm3.24 4.874l-.465-1.066-.693 1.007 1.158.059zm3.184 4.294l-.466-1.076-.692 1.017 1.158.059zm-4.585 2.101l-.465-1.065-.68 1.006 1.145.06zm1.86-9.607l-.479-1.075-.68 1.016 1.159.06zm8.097 4.162l-.479-1.076-.68 1.017 1.159.059zM12.458 36.5l-.249-1.05-.824.872 1.073.178zm3.165 13.452l1.463-.364-1.293-.7-.17 1.064zm3.178.853l-.42-1.225-.855 1.085 1.275.14zm-2.011 3.959l-1.458-1.924-.726 1.981 2.184-.057zm-12.135.379l-1.458-1.924-.726 1.982 2.184-.058zM2.657 35.938l-.989-.318.409.877.58-.559zm.356-2l-.952-.395.282.913.67-.519zm.822 14.074l-1.001-.318.408.887.593-.569z"/><path d="M2.706 48.853l-1.578-.501.653 1.398.925-.897zm16.15-1.225l-1.443-.622.45 1.394.993-.772zm-.409 1.559l-1.417-.623.425 1.405.992-.782zm-2.254-7.065l-1.135-.95-.082 1.443 1.217-.493zm5.787 10.342l-.66-.784-.26 1.014.92-.23zm-13.192-.52l-.032-1.015-1.253.569 1.285.447zm-.579-1.019l.88-.303-.784-.695-.096.998zm-1.85 2.567l1.252-.569-1.295-.785.042 1.354zm15.646-1.463l.45.557.397-.679-.847.122zM5.897 49.304l-.439.606.895.152-.456-.758zm8.815-2.53l-.648.411.764.05-.116-.462zM1.162 29.157l-.109.554.63-.158-.52-.396zm15.227 18.42l-.033.562.629-.21-.596-.352zm-4.02-12.736l-.542.122.454.304.089-.426zm-3.72.084l-1.385.393 1.204.703.181-1.096zM2.561 37.7l-.894-.956-.395 1.177 1.289-.22zm2.925-3.976l-.944-.923-.343 1.196 1.287-.273zM.855 17.671l-.61-.828.017 1.376.593-.548zm19.483 36.718l.294-1.142-1.515.29 1.22.852zm-3.184-1.044l-.255-.034.269.478-.798.078.617.648.18-.726.292.372.436-.68-.613-.108.308-.709-.97.264.534.417z"/><path d="M18.12 52.518l-.583-.744-.401.574.984.17zm-2.185.037l.869.142-.455-.727-.414.585zm4.613 2.058l-.587-.511-.261.6.848-.09zm-1.812-1.077l.983-.263-.777-.463-.206.726zm-1.213-20.922l-.58-.236.232.49.348-.254zm4.095 15.56l.034-.53-.445.385.41.145zm.5-15.291l-.579-.226.231.48.348-.254zm-6.06-4.86l-.58-.236.232.49.348-.254zm6.55 23.402l-.982-.149.326.688.657-.539zm-14.34-27.89l-.641-.192.295.488.346-.297zm-1.321-2.85l-.642-.191.32.487.322-.296zM7.02 33.99l.024-.424-.55.303.526.121zm-.878 2.812l.063-.426-.576.283.513.143zm3.974-7.006l-.478-.25.077.422.4-.172zm4.431-1.726l-.478-.25.064.422.414-.172zm7.724 3.199l.113-.459-.45.226.337.233zm-1.498-.345l-.441-.304.013.423.428-.119zm-9.313 17.07l-.478-.25.077.422.4-.172zm-2.081 4.554l-.49-.64-.411.69.992.021.76.718.573-1.151-1.424.362zm-4.133-.898l1.043-.794-1.412-.464-.11-.23-.593.506.771.293.301.69zm5.242-1.402l.232-.717-.879.345.647.372zm-2.667-.795l.205-.748-.915.41.71.338zm-.683-1.503l.384.072-.142-.482-.185.196-.872-.258.446.864.37-.392zM20.53 33.282l.358.095-.09-.474-.199.175-.81-.313.345.857.396-.34z"/><path d="M6.2 40.294l-.44.564.87.185-.43-.749zm2.964 9.467l1.055-.795-1.412-.454-.096-.24-.62.506.772.294.3.689zm-2.37-6.733l1.042-.795-1.413-.464-.096-.23-.62.507.772.293.314.689zm-3.62 6.962l1.344.34-.23-1.242.198-.187-.819-.186.073.697-.566.578zm7.583 1.955l-1.29-.595.258 1.315 1.032-.72zM19.339 52.588l1.49.133-.347-.942-1.143.809zm-3.34-1.94l.68 1.409.847-1.36L16 50.648zm-1.95 1.438l-.942 1.141 1.274.098-.622.443 1.323.435-.063-.771.82-.184-.776-.453-.057.214-.45.247-.506-1.17zm-1.658-.234l.654.615.177-.853-.831.238zm9.14-.286l-.142-.461-.37.372.511.09zm1.687.318l-.142-.45-.37.37.512.08zM7.572 36.304l-.497-.462-.043.658.54-.197zm-1.119-9.356l-.435-.515-.132.66.567-.145z"/><path d="M16.719 53.167l-.869-.142.085.664.784-.522zm1.574.353l.193-.726-.855.292.662.434zm-1.75-3.153l-1.853-.323.443 1.976 1.41-1.653zm-3.67 4.54l-4.29.134 2.885-2.8 1.405 2.666zm-5.143.108l-3.175.057 1.686-1.747 1.489 1.69zm-6.33-.86l-.078-1.692 1.67-.243-1.591 1.934zm18.757-4.822l.722-1.293-1.726.478 1.004.815zm2.378-.35l.722-1.292-1.726.477 1.004.816zm.638-6.403l-.044-1.417-1.301 1.068 1.345.35zM4.637 14.61l.237-.537-.576.261.339.275zm9.681 36.135l-.317-1.187-.962.93 1.279.257zm-1.193-3.202l-.147.174.634-.041-.281.75.958-.242-.677-.508.354-.054L13.54 47l-.415.543-.603-.585-.178.8.781-.215zM6.43 48.767l.397-1.515-1.842.82 1.445.695zm-2.71-1.312l.193-.747-.914.41.722.337z"/><path d="M7.12 47.801l.046-.181.148-.534-.217-.036.194-.726-1.28.538.562.48.548.46zm-4.647-1.548l.511.11-.147-.662-.272.252-1.181-.386.546 1.2.543-.514zm-1.31 1.978l1.506-.577-1.51-1.572.003 2.149zM.791 36.386l.917-.346-.92-.956.003 1.302zm-.068-2.168l.917-.347-.919-.945.002 1.292zm.296 9.476l.917-.346-.92-.956.003 1.302zm2.851 4.611l-.278.062.526.544.426-.606.883-.186-.842-.927-.715 1.113zm7.911-3l-.304 1.248 1.596-.177-1.292-1.07zm-3.654-4.702l-.291 1.247 1.595-.187-1.304-1.06zm-.736 4.892l-.426.607.767.134-.341-.74zm-2.07-1.205l-.965.062.688.455.276-.517zm8.064.7l-.24-1.157-.994.688 1.234.47zm5.12-4.077l-.227-1.157-.994.688 1.221.47zm-.904-3.327l-.24-1.157-.995.687 1.235.47zm-7.833 9.56l1.47.717-.031-1.428-1.44.712zm-5.503-4.104l1.483.716-.044-1.428-1.44.712z"/><path d="M8.531 42.95l-.51-.058.18.47.33-.412zm8.85-.202l-.629.189.593.267.036-.456zm-12.745.769l-.603.23.617.214-.014-.444zm1.711-4.183l-.602.231.616.214-.014-.445zm3.392 6.881l-.139.851.927-.452-.788-.399zm-7.914.883l1.023.211-.28-.859-.743.648zm19.745-1.634l-.892-.11.462.558.43-.448zm-.78-3.426l-.893-.12.45.568.443-.448zm-8.76-3.855l.05-.425-.656.168.605.257zm1.23 1.973l.05-.425-.656.158.606.267zm.594 4.374l.882-.239-.8-.398-.082.637zm-6.205-.144l.88-.303-.85-.365-.03.668zm1.133-10.908l.88-.303-.85-.365-.03.668zm-6.838 8.895l.88-.303-.85-.365-.03.668zm14.393 2.323l.883-.218-.776-.42-.107.638zm-5.94 1.012l1.156-.407-1.12-.473-.036.88z"/><path d="M5.754 45.528l1.332-.465-1.263-.554-.07 1.019zm10.119.975l1.45-.363-1.267-.702-.183 1.065zm2.833.388l-.42-1.226-.855 1.086 1.275.14zm-14.98-2.793l-1-.318.409.887.592-.569zm-.974-1.091l-1-.318.408.887.592-.57zm-.77-4.348L.98 38.35l.409.877.592-.57zm1.575.416l-.42.818 1.083-.33-.663-.488zm-.229 2.834l-.419.828 1.07-.33-.651-.498zm-.313-3.928l-.42.828 1.07-.33-.65-.498zm-.64 6.774l-1.274-.913.035 1.502 1.239-.59zm-.167-3.298l-1.273-.913.047 1.502 1.226-.59zm-.324-10.364L.61 30.159l.047 1.512 1.227-.578zm-.1-3.205L.51 26.975l.048 1.512 1.226-.599zm-.077-2.475L.433 24.5l.047 1.513 1.227-.6zm-.453-5.141l-.97-.541.047 1.512.923-.971zm17.505 23.43l-1.443-.61.45 1.393.993-.782z"/><path d="M8.651 48.03l-.031-1.015-1.253.568 1.284.447zm-.578-1.02l.88-.302-.784-.695-.096.998zm-2.3-1.621l-.438.606.894.152-.455-.758zm8.816-2.53l-.648.411.764.05-.116-.462zm1.676.794l-.033.562.629-.21-.596-.352zm5.229.599l.034-.53-.445.384.41.145zm-10.17-.18l-.479-.25.077.421.401-.171zm-3.68-5.92l-.478-.249.077.421.4-.171zm-2.535 9.565l1.043-.794-1.412-.464-.11-.23-.593.506.771.293.301.69zm5.242-1.402l.232-.727-.878.366.646.36zm-2.667-.795l.205-.748-.915.41.71.338zM7 44.016l.384.073-.142-.482-.185.196-.872-.27.446.876.37-.392zM3.265 28.148l.383.073-.142-.483-.184.197-.872-.259.446.865.369-.393zm.933 12.76l.383.061-.142-.472-.197.197-.873-.27.447.866.382-.383zm-.782-4.666l.384.062-.142-.472-.197.197-.873-.27.446.865.382-.382zm-1.378 3.07l.067-.319-.568.145.234.151-.282.75 1.03-.424-.48-.302zm2.895-.884l.384.073-.142-.483-.185.197-.897-.258.459.864.381-.393zm-3.64-14.813l.384.073-.142-.483-.185.197-.872-.259.447.865.369-.393z"/><path d="M5.17 45.642l.384.062-.142-.472-.185.186-.897-.258.446.865.395-.383zm2.641.743l-.29.062.525.545.426-.606.884-.187-.842-.926-.703 1.112zm2.043-2.53l-.44.564.857.185-.417-.75zM7.61 39.934l-.44.564.857.185-.417-.75z"/><path d="M19.456 41.681l.05-.425-.668.17.618.255zm-.914.41l-.478-.25.076.421.402-.171zm-1.481-.23l-.44.565.857.185-.417-.75zM9.053 45.85l1.055-.795-1.412-.464-.096-.23-.62.506.772.294.301.69zm5.94-5.119l1.392-.17-.846-1.032.082-.236-.835.132.426.6-.22.706zM3.062 46.08l1.345.339-.23-1.242.198-.197-.819-.165.072.686-.566.579zm-1.352-5.04l1.345.34-.217-1.243.185-.196-.82-.186.073.696-.566.59zm14.016 4.517l-1.42-.729-.003 1.112 1.423-.383zm4.738-2.107l-1.421-.739-.003 1.123 1.424-.384zm2.04 1.842l.635.001-.27-.478-.366.477zm-.827-2.038h.636l-.27-.478-.366.477zm.677 2.943h.635l-.269-.478-.366.477zM13.66 41.65l.635-.02-.269-.479-.366.499zm-.162.904l.635.002-.269-.479-.366.477zm-3.604.537h.635l-.27-.478-.365.478zm9.209 1.935l.065-.743-.75.415.685.328z"/><path d="M19.755 46.756l.065-.743-.749.415.684.328zm2.17.303l.052-.743-.75.415.697.328zm-6.046-.32l.68 1.409.846-1.36-1.526-.048zm.025 1.62l-1.865-.313.468 1.965 1.397-1.652zm4.127-2.924l.722-1.293-1.726.477 1.004.816zm2.624-8.72l.384.093-.09-.463-.198.176-.81-.324.332.868.382-.35zM21.56 39.87l.635.002-.269-.479-.366.477zm-.218-1.687l-.893-.11.462.558.43-.447zm-.077-1.225l.035-.53-.446.384.411.146zm-2.434-7.948l.035-.53-.446.384.411.146zm-1.733 2.277l.035-.53-.446.384.411.146zm.521 4.462l.034-.53-.445.384.411.146zm1.837 4.283l.358.094-.09-.463-.199.165-.81-.313.345.857.396-.34zm2.343-10.374l.36.095-.092-.474-.198.175-.797-.324.332.868.395-.34zM7.607 30.849l.358.094-.078-.463-.198.175-.81-.324.332.869.396-.351z"/><path d="M14.567 36.9l.359.095-.09-.463-.199.165-.81-.314.344.857.396-.34zm7.696 1.093l.635-.02-.269-.468-.366.488zm-.149.915l.635.002-.269-.48-.366.478zm-2.588.547l.066-.743-.75.415.684.328zm-7.124 2.552l.065-.743-.749.415.684.328zm7.913-7.002l.066-.743-.75.415.684.328zm1.38 4.753l.054-.743-.75.404.697.339zM11.06 39.72l.066-.743-.75.415.684.328zm7.862-1.75l1.685-.158-1.352-.985-.333 1.144zm3.162 3.586l.721-1.293-1.725.477 1.003.816zm-9.717 2.167l.722-1.293-1.725.477 1.003.816zm1.826 3.119l-.317-1.197-.962.94 1.279.257zM3.354 20.439l-.495-.376.068.549.427-.173zm.599-2.39l-.495-.376.068.549.427-.173zm12.41-5.384l.545.343-.144-.546-.4.203zm-3.567 5.373l.544.321-.144-.525-.4.204zm1.759 5.058l-.392.457.631-.126-.239-.331zM16.3 17.96l.346.476.11-.533-.456.057zm1.957 2.437l.346.487.11-.533-.456.046zm9.158 34.034l-1.176-1.043-.512 1.096 1.688-.053zm-1.477-3.362l-.147.174.634-.03-.282.728.958-.242-.676-.487.354-.064-.426-.622-.415.543-.603-.585-.178.8.78-.215zm3.034-26.074l.735-.076-.483-.408-.252.484zm-3.771 28.51l-.692.234.774.357.052-.764.998-.582-1.542-.566.41 1.321zm-.206-5.37l-.292 1.247 1.583-.177-1.291-1.07zm-2.154-11.98l-.145.639.912-.081-.767-.559zm1.769 15.93l-.155-.896-.784.522.939.373zm1.54-3.543l-.239-1.157-.995.688 1.235.47zm-3.157 1.412l1.484.716-.045-1.428-1.439.712zm7.192-3.665l-.63.189.593.267.037-.456zm.87-20.11l-.604.178.567.257.037-.435zm-2.845 8.58l-.628.21.604.245.024-.456zm6.126 14.258l-.893-.12.462.557.43-.437zm1.616 1.696l-.893-.11.45.558.443-.448zm-.082 1.464l-.892-.11.449.558.443-.448zm-10.854-4.975l.05-.425-.655.169.605.256zm1.603.86l.882-.24-.8-.398-.082.638zm2.47.188l.883-.219-.775-.42-.107.639zm-5.94 1.01l1.156-.416-1.12-.473-.036.89zm3.269-10.867l1.156-.407-1.12-.473-.036.88zm-3.75 3.631l1.157-.417-1.12-.462-.036.88zm7.702-8.498l1.339-.253-1.114-.675-.225.928zm-6.96-4.387l1.256-.463-1.236-.512-.02.975zm3.252 4.874l-.465-1.066-.693 1.007 1.158.059zm3.184 4.294l-.466-1.076-.692 1.016 1.158.06zm-4.597 2.102l-.466-1.066-.68 1.006 1.146.06zm.627-8.383l-.466-1.076-.692 1.017 1.158.059zm9.33 2.937l-.48-1.075-.679 1.016 1.158.06zM25.14 36.125l-.249-1.051-.824.873 1.073.178z"/><path d="M28.317 49.554l1.462-.363-1.292-.7-.17 1.063zm3.178.854l-.42-1.226-.855 1.086 1.275.14zm-2.011 3.959l-1.458-1.924-.726 1.981 2.184-.057zm2.038-7.136l-1.442-.622.425 1.395 1.017-.773zm-.408 1.558l-1.418-.622.426 1.405.992-.783zm-2.254-7.064l-1.135-.95-.082 1.443 1.217-.493zm5.787 10.342l-.66-.784-.26 1.014.92-.23zm.012-.424l.45.557.398-.679-.848.122zm-7.28-5.256l-.648.412.764.05-.116-.462zm1.677.794l-.033.562.603-.209-.57-.353zm-4.02-12.736l-.542.122.454.304.088-.426zm7.943 19.548l.295-1.142-1.516.29 1.221.852z"/><path d="M29.808 52.936l-.255-.034.269.478-.798.078.617.648.181-.726.291.372.436-.68-.613-.108.308-.709-.983.264.547.417zm.991-.814l-.582-.744-.414.574.996.17zm-2.184.036l.868.142-.454-.726-.414.584zm4.613 2.058l-.588-.511-.26.601.848-.09zm-1.813-1.076l.983-.264-.777-.462-.205.726zm-1.2-20.923l-.58-.236.232.49.348-.254zm4.095 15.56l.034-.53-.445.384.411.146zm.5-15.291l-.579-.226.231.48.348-.254zm-6.06-4.86l-.58-.236.232.49.348-.254zm6.538 23.402l-.983-.149.327.689.656-.54zm-8.061-23.355l-.478-.25.064.422.414-.172zm7.723 3.2l.113-.46-.45.226.337.233zm-1.497-.346l-.441-.303.013.423.428-.12zm-9.288 17.07l-.478-.25.077.421.4-.171zm9.07-14.713l.358.095-.09-.474-.199.176-.81-.313.345.857.395-.34zM35.837 42.196l-.044-1.417-1.3 1.067 1.344.35zm-8.855 8.163l-.317-1.186-.962.93 1.28.256zm10.278.356l-.122.174.635-.03-.283.728.946-.241-.65-.488.353-.064-.426-.622-.428.543-.59-.585-.178.8.743-.215zm1.145 1.277l.912.713-.06-1.925-.852 1.212zm-1.677-.815l-.943 1.14 1.274.099-.622.442 1.31.436-.062-.771.833-.185-.777-.462-.057.213-.45.247-.506-1.16z"/><path d="M38.32 50.004l-.316-1.186-.962.93 1.278.256zm-12.516-2.848l-.147.174.634-.041-.281.75.958-.242-.677-.508.354-.053-.426-.622-.415.542-.602-.585-.179.8.781-.215zm-1.366-2.244l-.304 1.248 1.596-.177-1.292-1.07zm1.604-.304l-.24-1.157-.994.687 1.234.47zm5.12-4.077l-.226-1.157-.995.687 1.222.47zm-.904-3.328l-.24-1.157-.994.688 1.234.47zm-7.795 9.56l1.471.716-.032-1.428-1.439.712zm7.613-4.42l-.63.19.593.267.037-.457zm4.151 2.729l-.893-.11.462.557.431-.447zm-.78-3.427l-.894-.12.45.568.443-.448zm-8.761-3.855l.05-.425-.655.17.605.255zm1.243 1.973l.05-.425-.668.158.618.267zm.594 4.375l.882-.24-.8-.398-.082.638zm2.47.176l.883-.218-.775-.42-.107.638zm-5.94 1.012l1.157-.407-1.12-.473-.037.88zm5.489.781l1.45-.363-1.268-.701-.182 1.064z"/><path d="M32.123 41.282l.038-.425-.656.17.618.255zm-.927.41l-.478-.25.076.422.401-.172zm-1.469-.23l-.44.565.857.185-.417-.75zm-2.068-1.13l1.392-.171-.833-1.033.082-.235-.835.132.426.6-.232.706zm.735 4.825l-1.42-.729-.004 1.112 1.424-.383zm4.763-2.108l-1.421-.739-.003 1.123 1.424-.384zm2.014 1.843l.635.001-.269-.478-.366.477zm-.826-2.039l.635.002-.269-.479-.366.477zm.676 2.944h.636l-.27-.478-.366.477zm-8.693-4.556l.634-.02-.269-.478-.365.498zm-.15.904l.635.002-.269-.479-.366.477zm5.63 2.471l.066-.743-.75.415.684.328zm.625 1.717l.066-.743-.75.415.684.328zm2.17.302l.053-.742-.75.415.697.327zm-6.046-.319l.68 1.408.847-1.36-1.527-.048zm.013 1.62l-1.865-.313.468 1.965 1.397-1.653z"/><path d="M32.7 45.036l.722-1.293-1.726.477 1.004.816zm2.624-8.72l.385.093-.091-.463-.198.176-.81-.324.331.868.383-.35zm-1.095 3.157h.635l-.27-.478-.365.478zm-.231-1.687l-.893-.11.462.557.431-.447zm-.064-1.226l.035-.53-.446.384.411.146zM31.5 28.612l.035-.53-.446.384.411.146zm-1.733 2.277l.035-.53-.446.384.411.146zm.52 4.462l.035-.53-.445.384.41.146zm1.825 4.283l.358.095-.09-.463-.198.165-.81-.314.344.858.396-.34zm2.344-10.374l.358.095-.09-.474-.198.176-.798-.324.332.868.396-.34zm-7.232 7.256l.359.094-.091-.463-.198.165-.81-.313.344.857.396-.34zm7.709 1.093l.634-.02-.268-.468-.366.488zm-.15.915l.636.001-.27-.479-.366.478zm-2.587.546l.066-.743-.75.415.684.328zm-7.138 2.553l.066-.744-.75.416.684.328zm7.952-7.003l.065-.743-.75.415.685.328z"/><path d="M34.365 39.363l.053-.743-.75.405.697.338zm-10.636-.038l.066-.743-.75.415.684.328zm7.09-2.826l1.686-.159-1.365-.973-.32 1.132zm3.958 4.661l.722-1.292-1.738.477 1.016.815zm-9.716 2.167l.722-1.293-1.726.478 1.004.815zm1.813 3.12l-.317-1.197-.961.94 1.278.257zm.745-31.444l.544.332-.143-.524-.4.192zm-3.022 6.171l.544.332-.144-.546-.4.214z"/><path d="M25.211 23.843l-.392.457.631-.126-.239-.331zm11.955 23.911l-.292 1.248 1.596-.177-1.304-1.071zm1.18.387l-.226-1.158-.995.688 1.222.47zm-3.132 1.41l1.471.716-.044-1.427-1.427.711zm2.023-2.752l.05-.425-.655.169.605.256zm-1.866 2.07l1.168-.418-1.132-.473-.036.89zm-.48-7.237l1.168-.417-1.132-.463-.036.88zm.766-12.886l1.256-.463-1.236-.512-.02.975zm3.114 6.148l-.099-2.347-1.338 1.069 1.437 1.278zm.12 3.808l-.1-2.347-1.338 1.079 1.437 1.268zm.05 2.825l.011-1.663-1.37.89 1.358.773zm.141 3.32l-.098-2.348-1.339 1.08 1.437 1.267zm-1.612-4.852l-.466-1.065-.693 1.006 1.159.06zm.652-8.383l-.478-1.076-.68 1.017 1.158.059zm-.76 4.1l-.25-1.052-.811.873 1.06.178zm-.129-1.659l-.555.123.454.304.101-.427z"/><path d="M36.327 47.22l-.478-.25.064.42.414-.17zm2.843 2.769l-.29-1.188-.963.93 1.253.258zm-1.18-3.203l-.121.173.634-.04-.282.749.946-.241-.652-.51.342-.052-.4-.623-.429.543-.602-.585-.166.8.73-.214zm-1.366-2.244l-.291 1.248 1.595-.177-1.304-1.07zm1.604-.304l-.227-1.157-.994.687 1.221.47zm-1.357-6.839l.05-.425-.655.169.605.256zm1.23 1.973l.05-.425-.655.158.606.267zm-2.875 5.563l1.169-.407-1.133-.473-.036.88zm.966-1.618l-.478-.25.064.422.414-.172zm1.04-2.076l.066-.743-.75.415.684.328zm-1.304-2.288l.066-.743-.75.415.684.328zm1.295 4.004l.721-1.293-1.725.477 1.004.816zm1.812 3.119l-.291-1.198-.962.94 1.253.258zm-2.251-25.273l.544.332-.144-.546-.4.214zm.617 2.67l-.405.457.632-.126-.227-.332zm-11.586-4.804l.346.486.11-.533-.456.047zm5.087 1.344l.345.486.11-.532-.455.046z"/></g></g></g><defs><linearGradient id="paint0_linear" x1="20.052" y1="11.651" x2="20.052" y2="41.776" gradientUnits="userSpaceOnUse"><stop stop-color="#FDD390"/><stop offset="1" stop-color="#EDA752"/></linearGradient><linearGradient id="paint1_linear" x1="19.87" y1="15.163" x2="-7.08" y2="17.677" gradientUnits="userSpaceOnUse"><stop stop-color="#ABC1DA" stop-opacity="0"/><stop offset="1" stop-color="#ABC1DA"/></linearGradient><linearGradient id="paint2_linear" x1="21.882" y1="54.258" x2="21.045" y2="27.498" gradientUnits="userSpaceOnUse"><stop stop-color="#FAC26A"/><stop offset="1" stop-color="#FDD390"/></linearGradient><linearGradient id="paint3_linear" x1="20.052" y1="11.651" x2="20.052" y2="41.776" gradientUnits="userSpaceOnUse"><stop stop-color="#FDD390"/><stop offset="1" stop-color="#EDA752"/></linearGradient><linearGradient id="paint4_linear" x1="19.87" y1="15.163" x2="-7.08" y2="17.677" gradientUnits="userSpaceOnUse"><stop stop-color="#ABC1DA" stop-opacity="0"/><stop offset="1" stop-color="#ABC1DA"/></linearGradient><linearGradient id="paint5_linear" x1="21.882" y1="54.258" x2="21.045" y2="27.498" gradientUnits="userSpaceOnUse"><stop stop-color="#FAC26A"/><stop offset="1" stop-color="#FDD390"/></linearGradient></defs></svg>